# xmcd
#
# Track frame offsets:
#	182
#	16077
#	28410
#	46967
#	53517
#	66377
#	83660
#	97985
#	116367
#	125482
#	144787
#	169120
#	185237
#	207402
#	219427
#	235657
#
# Disc length: 3382 seconds
#
# Revision: 2
# Processed by: cddbd v1.5.1PL0 Copyright (c) Steve Scherf et al.
# Submitted via: audiograbber 1.83.01
#
DISCID=d70d3410
DTITLE=Various Artist - Back to the Blues  (1971-1983)
DYEAR=1988
DGENRE=Blues
TTITLE0=Otis Rush - Natural Ball (1971) 
TTITLE1=Johnny Shines and Robert Jr.. Lockwood - Full Grown Woman (1980) 
TTITLE2=Johnny Shines and Robert Jr.. Lockwood - Hangin' On (1980) 
TTITLE3=Ron Thompson - Rockin' at the Coconuts Top (1980) 
TTITLE4=Brownie McGhee - Jump, Little Children (1981) 
TTITLE5=Hubert Sumlin - From Coast to Coast (1982) 
TTITLE6=Sugar Blue - Shed No Tears (1979) 
TTITLE7=Champion Jack Dupree - Somebody's Done Change the Lock (1977) 
TTITLE8=Clifton Chenier - He Tit' Fill' (1977) 
TTITLE9=Screamin' Jay hawkins - Get Down, France (1983) 
TTITLE10=Luther Tucker - Lonesome Boulevards (1980) 
TTITLE11=Sonny Terry, Roosevelt Sykes and Brownie McGhee - Robbin' the Grave (197
TTITLE11=4) 
TTITLE12=Booker T. Laury - Rollin' and Tumblin' (1981)
TTITLE13=Roosevelt Sykes - Music is My Business (1977) 
TTITLE14=Troyce Key - No Cuttin' Loose (1982) 
TTITLE15=Sonny Rhodes - I Know How to Party Too (1980) 
EXTD=
EXTT0=
EXTT1=
EXTT2=
EXTT3=
EXTT4=
EXTT5=
EXTT6=
EXTT7=
EXTT8=
EXTT9=
EXTT10=
EXTT11=
EXTT12=
EXTT13=
EXTT14=
EXTT15=
PLAYORDER=
